<svg xmlns="http://www.w3.org/2000/svg" xmlns:xlink="http://www.w3.org/1999/xlink" width="1080" zoomAndPan="magnify" viewBox="0 0 810 1439.999935" height="1920" preserveAspectRatio="xMidYMid meet" version="1.0"><defs><clipPath id="d732eca124"><path d="M 170.304688 214 L 401 214 L 401 623 L 170.304688 623 Z M 170.304688 214 " clip-rule="nonzero"/></clipPath><clipPath id="706e5bd52d"><path d="M 0 13 L 808.21875 13 L 808.21875 821.21875 L 0 821.21875 Z M 0 13 " clip-rule="nonzero"/></clipPath><clipPath id="30020b11c3"><path d="M 404.964844 13 C 181.308594 13 0 194.308594 0 417.964844 C 0 641.621094 181.308594 822.929688 404.964844 822.929688 C 628.621094 822.929688 809.929688 641.621094 809.929688 417.964844 C 809.929688 194.308594 628.621094 13 404.964844 13 Z M 404.964844 13 " clip-rule="nonzero"/></clipPath><clipPath id="27ed60798d"><path d="M 0 0.160156 L 810 0.160156 L 810 835.601562 L 0 835.601562 Z M 0 0.160156 " clip-rule="nonzero"/></clipPath><clipPath id="650ceb10b0"><rect x="0" width="810" y="0" height="836"/></clipPath></defs><g transform="matrix(1, 0, 0, 1, 0, 302)"><g clip-path="url(#650ceb10b0)"><g clip-path="url(#d732eca124)"><path fill="#ffeadf" d="M 392.386719 215.625 C 387.417969 213.417969 381.570312 214.355469 377.484375 218 L 254.410156 328.164062 L 208.046875 328.164062 C 187.132812 328.164062 170.128906 345.21875 170.128906 366.132812 L 170.128906 470.945312 C 170.128906 491.808594 187.128906 508.753906 208.046875 508.753906 L 254.410156 508.753906 L 377.484375 618.917969 C 380.078125 621.234375 383.394531 622.449219 386.753906 622.449219 C 388.632812 622.449219 390.5625 622.0625 392.386719 621.289062 C 397.355469 619.023438 400.554688 614.113281 400.554688 608.648438 L 400.554688 228.320312 C 400.554688 222.855469 397.351562 217.886719 392.386719 215.625 Z M 392.386719 215.625 " fill-opacity="1" fill-rule="nonzero"/></g><path fill="#ffeadf" d="M 451.945312 326.667969 C 445.207031 323.078125 436.820312 325.617188 433.175781 332.351562 C 429.585938 339.085938 432.125 347.476562 438.859375 351.121094 C 463.695312 364.421875 479.09375 390.253906 479.09375 418.507812 C 479.09375 446.761719 463.695312 472.484375 438.859375 485.789062 C 432.125 489.433594 429.589844 497.824219 433.175781 504.554688 C 435.714844 509.1875 440.460938 511.839844 445.425781 511.839844 C 447.632812 511.839844 449.84375 511.339844 451.9375 510.238281 C 485.773438 492.078125 506.800781 456.917969 506.800781 418.507812 C 506.800781 380.097656 485.773438 344.824219 451.9375 326.667969 Z M 451.945312 326.667969 " fill-opacity="1" fill-rule="nonzero"/><path fill="#ffeadf" d="M 549.410156 232.621094 C 543.449219 227.875 534.730469 228.863281 529.984375 234.882812 C 525.238281 240.84375 526.230469 249.5625 532.25 254.308594 C 582.804688 294.324219 611.78125 354.152344 611.78125 418.507812 C 611.78125 482.863281 582.804688 542.582031 532.25 582.59375 C 526.238281 587.339844 525.238281 596.007812 529.984375 602.019531 C 532.691406 605.5 536.773438 607.265625 540.855469 607.265625 C 543.835938 607.265625 546.871094 606.328125 549.410156 604.285156 C 606.644531 559.027344 639.484375 491.304688 639.484375 418.507812 C 639.484375 345.710938 606.648438 277.878906 549.410156 232.621094 Z M 549.410156 232.621094 " fill-opacity="1" fill-rule="nonzero"/><path fill="#ffeadf" d="M 501.449219 279.589844 C 495.210938 275.171875 486.597656 276.609375 482.128906 282.847656 C 477.710938 289.082031 479.203125 297.75 485.4375 302.167969 C 523.019531 328.828125 545.433594 372.371094 545.433594 418.515625 C 545.433594 464.65625 523.027344 508.089844 485.4375 534.75 C 479.203125 539.167969 477.710938 547.832031 482.128906 554.070312 C 484.832031 557.878906 489.140625 559.917969 493.441406 559.917969 C 496.199219 559.917969 499.015625 559.035156 501.441406 557.328125 C 546.3125 525.480469 573.136719 473.597656 573.136719 418.519531 C 573.136719 363.441406 546.3125 311.449219 501.441406 279.601562 Z M 501.449219 279.589844 " fill-opacity="1" fill-rule="nonzero"/><g clip-path="url(#706e5bd52d)"><g clip-path="url(#30020b11c3)"><path stroke-linecap="butt" transform="matrix(8.418938, 0, 0, 8.418938, 0.0000182812, 12.999953)" fill="none" stroke-linejoin="miter" d="M 48.101652 0.00000562348 C 21.535801 0.00000562348 -0.00000217144 21.535809 -0.00000217144 48.10166 C -0.00000217144 74.667511 21.535801 96.203315 48.101652 96.203315 C 74.667503 96.203315 96.203307 74.667511 96.203307 48.10166 C 96.203307 21.535809 74.667503 0.00000562348 48.101652 0.00000562348 Z M 48.101652 0.00000562348 " stroke="#ffeadf" stroke-width="0.712679" stroke-opacity="1" stroke-miterlimit="4"/></g></g><g clip-path="url(#27ed60798d)"><path stroke-linecap="butt" transform="matrix(5.953088, 5.953088, -5.953088, 5.953088, 130.517424, 119.740939)" fill="none" stroke-linejoin="miter" d="M -0.0000462484 2.000268 L 96.211512 1.99994 " stroke="#ffeadf" stroke-width="4" stroke-opacity="1" stroke-miterlimit="4"/><path stroke-linecap="butt" transform="matrix(-5.953088, 5.953088, -5.953088, -5.953088, 703.223093, 143.553291)" fill="none" stroke-linejoin="miter" d="M 0.000154001 1.999932 L 96.211712 2.00026 " stroke="#ffeadf" stroke-width="4" stroke-opacity="1" stroke-miterlimit="4"/></g></g></g></svg>